<?xml version="1.0" encoding="UTF-8" standalone="no"?>
<svg
   xmlns:dc="http://purl.org/dc/elements/1.1/"
   xmlns:cc="http://creativecommons.org/ns#"
   xmlns:rdf="http://www.w3.org/1999/02/22-rdf-syntax-ns#"
   xmlns:svg="http://www.w3.org/2000/svg"
   xmlns="http://www.w3.org/2000/svg"
   viewBox="0 0 189.33333 36"
   height="36"
   width="189.33333"
   xml:space="preserve"
   id="svg2"
   version="1.1"><metadata
     id="metadata8"><rdf:RDF><cc:Work
         rdf:about=""><dc:format>image/svg+xml</dc:format><dc:type
           rdf:resource="http://purl.org/dc/dcmitype/StillImage" /></cc:Work></rdf:RDF></metadata><defs
     id="defs6"><clipPath
       id="clipPath20"
       clipPathUnits="userSpaceOnUse"><path
         style="clip-rule:evenodd"
         id="path18"
         d="m 599.926,188.676 h 64.156 l -93.223,72.383 h 94.067 l 8.496,0.152 h 53.008 l 96.078,-71.754 h 128.695 l 17.809,-13.824 c 6.617,9.988 17.304,14.34 29.902,14.34 H 1138.8 l 0.54,-0.032 c 0.46,-0.023 0.92,-0.058 1.38,-0.097 h 41.36 l 5.76,0.105 h 38.78 l 5.38,-4.633 6.1,4.157 h 70.68 l 97.39,0.304 -71.6,-47.414 82.75,-71.2067 h -155.44 l -14.77,13.2968 -19.41,-12.8554 h -52.74 l -8.54,0.1601 h -100.75 0.01 -87.867 c -7.161,0 -14.329,1.8086 -20.36,5.1094 l -1.859,-4.75 H 766.785 l 0.156,0.418 H 722.43 685.105 660.676 L 753.898,0.160156 H 659.836 L 651.332,0.00390625 H 598.328 L 502.246,71.7578 H 373.551 L 355.848,85.5 350.816,72.1172 H 210.348 L 193.965,84.8398 188.996,72.1172 H 0 L 44.1445,189.457 H 184.605 l 16.383,-12.719 4.973,12.723 h 188.996 l -0.141,-0.363 h 163.153 l -0.156,-0.422 z" /></clipPath><linearGradient
       id="linearGradient26"
       gradientTransform="matrix(0,10,-10,0,1417.33,130.604)"
       gradientUnits="userSpaceOnUse"
       y2="0"
       x2="13.0607"
       y1="0"
       x1="-13.0607"><stop
         id="stop22"
         offset="0"
         style="stop-opacity:1;stop-color:#11531c" /><stop
         id="stop24"
         offset="1"
         style="stop-opacity:1;stop-color:#59c134" /></linearGradient></defs><g
     transform="matrix(1.3333333,0,0,-1.3333333,0,36)"
     id="g10"><g
       transform="scale(0.1)"
       id="g12"><g
         id="g14"><g
           clip-path="url(#clipPath20)"
           id="g16"><path
             id="path28"
             style="fill:url(#linearGradient26);fill-opacity:1;fill-rule:nonzero;stroke:none"
             d="m 599.926,188.676 h 64.156 l -93.223,72.383 h 94.067 l 8.496,0.152 h 53.008 l 96.078,-71.754 h 128.695 l 17.809,-13.824 c 6.617,9.988 17.304,14.34 29.902,14.34 H 1138.8 l 0.54,-0.032 c 0.46,-0.023 0.92,-0.058 1.38,-0.097 h 41.36 l 5.76,0.105 h 38.78 l 5.38,-4.633 6.1,4.157 h 70.68 l 97.39,0.304 -71.6,-47.414 82.75,-71.2067 h -155.44 l -14.77,13.2968 -19.41,-12.8554 h -52.74 l -8.54,0.1601 h -100.75 0.01 -87.867 c -7.161,0 -14.329,1.8086 -20.36,5.1094 l -1.859,-4.75 H 766.785 l 0.156,0.418 H 722.43 685.105 660.676 L 753.898,0.160156 H 659.836 L 651.332,0.00390625 H 598.328 L 502.246,71.7578 H 373.551 L 355.848,85.5 350.816,72.1172 H 210.348 L 193.965,84.8398 188.996,72.1172 H 0 L 44.1445,189.457 H 184.605 l 16.383,-12.719 4.973,12.723 h 188.996 l -0.141,-0.363 h 163.153 l -0.156,-0.422 h 42.113" /></g></g><path
         id="path30"
         style="fill:#fff200;fill-opacity:1;fill-rule:nonzero;stroke:none"
         d="m 1230.6,160.066 -11.42,9.829 h -31.16 l -5.75,-0.11 h -24.11 l 35.02,-31.523 h 5.48 l -68.03,-46.4495 h 35.98 l 8.53,-0.1562 h 46.52 l 27.32,18.0937 20.6,-18.5312 h 93.68 l -54.88,47.2152 h -16.08 l 46.93,31.078 -30.38,-0.094 h -64.56 z m -701.416,8.973 H 464.32 l -21.605,-55.453 -17.871,-0.289 20.031,55.742 h -62.016 l -23,-58.883 c -0.226,-0.668 -0.402,-1.324 -0.535,-1.957 l 21.098,-16.3865 h 119.707 l 0.062,0.1602 h 29.153 l -4.828,-11.8164 80.472,-60.0977 h 46.164 l 8.496,0.1562 h 35.711 l -108.867,84.5312 24.137,63.871 H 547.125 L 526.703,113.75 h -17.422 l 19.903,55.156 h -0.047 z M 28.9805,92.1758 H 93.832 l 21.613,55.4492 17.871,0.289 -20.031,-55.7382 h 62.012 l 23.004,58.8752 c 0.222,0.679 0.402,1.328 0.535,1.965 L 177.73,169.402 H 58.0273 Z M 365.977,169.402 h -64.856 l -21.609,-55.449 -17.867,-0.293 20.023,55.742 h -62.012 l -23,-58.879 c -0.222,-0.671 -0.398,-1.328 -0.539,-1.96 L 217.223,92.1758 H 336.934 Z M 714.125,92.5898 h 63.504 l 20.426,54.8752 h 17.422 L 795.574,92.3047 h 0.047 l -0.047,-0.1289 h 64.864 l 21.609,55.4492 17.867,0.289 -20.027,-55.7382 h 62.011 l 22.997,58.8752 c 0.226,0.679 0.406,1.328 0.539,1.965 l -21.106,16.386 H 824.625 l -0.059,-0.164 H 795.41 l 4.828,11.821 -80.472,60.097 H 673.602 L 665.105,241 h -35.707 l 108.864,-84.535 z m 263.688,-0.7734 c -8.485,0.0547 -18.196,4.1406 -15.305,12.4886 l 21.89,57.761 c 2.575,5.934 7.11,7.903 14.516,7.848 h 139.356 c 12.34,-0.66 11.25,-12.394 6.74,-22.937 l -10.06,-25.547 h -93.49 l 7.63,19.453 h 38.04 l 3.9,9.867 h -51.69 l -15.28,-39.48 106.7,0.289 C 1125.74,99.3555 1120.23,93 1105.75,91.8164 H 977.813" /><path
         id="path32"
         style="fill:#ffffff;fill-opacity:1;fill-rule:evenodd;stroke:none"
         d="m 677.93,165.754 -35.442,-19.555 -5.156,-13.937 -5.16,-13.938 23.953,-17.679 35.672,17.679 5.156,13.938 5.164,13.937 -24.187,19.555" /></g></g></svg>